{
  "accessors": [
    {
      "bufferView": 2,
      "componentType": 5126,
      "count": 55148,
      "max": [
        39.85887145996094,
        20.396812438964844,
        1.186279058456421
      ],
      "min": [
        -39.63005065917969,
        -21.70844268798828,
        -8.373772621154785
      ],
      "type": "VEC3"
    },
    {
      "bufferView": 2,
      "byteOffset": 661776,
      "componentType": 5126,
      "count": 55148,
      "max": [
        1.0,
        1.0,
        1.0
      ],
      "min": [
        -1.0,
        -1.0,
        -1.0
      ],
      "type": "VEC3"
    },
    {
      "bufferView": 3,
      "componentType": 5126,
      "count": 55148,
      "max": [
        1.0,
        1.0,
        1.0,
        1.0
      ],
      "min": [
        -1.0,
        -1.0,
        -1.0,
        -1.0
      ],
      "type": "VEC4"
    },
    {
      "bufferView": 1,
      "componentType": 5126,
      "count": 55148,
      "max": [
        0.9967859983444214,
        0.9995120167732239
      ],
      "min": [
        0.0004879999905824661,
        0.00048798322677612305
      ],
      "type": "VEC2"
    },
    {
      "bufferView": 1,
      "byteOffset": 441184,
      "componentType": 5126,
      "count": 55148,
      "max": [
        0.9967859983444214,
        0.9995120167732239
      ],
      "min": [
        0.0004879999905824661,
        0.00048798322677612305
      ],
      "type": "VEC2"
    },
    {
      "bufferView": 1,
      "byteOffset": 882368,
      "componentType": 5126,
      "count": 55148,
      "max": [
        0.9967859983444214,
        0.9995120167732239
      ],
      "min": [
        0.0004879999905824661,
        0.00048798322677612305
      ],
      "type": "VEC2"
    },
    {
      "bufferView": 1,
      "byteOffset": 1323552,
      "componentType": 5126,
      "count": 55148,
      "max": [
        0.9967859983444214,
        0.9995120167732239
      ],
      "min": [
        0.0004879999905824661,
        0.00048798322677612305
      ],
      "type": "VEC2"
    },
    {
      "bufferView": 1,
      "byteOffset": 1764736,
      "componentType": 5126,
      "count": 55148,
      "max": [
        0.9967859983444214,
        0.9995120167732239
      ],
      "min": [
        0.0004879999905824661,
        0.00048798322677612305
      ],
      "type": "VEC2"
    },
    {
      "bufferView": 0,
      "componentType": 5125,
      "count": 145470,
      "type": "SCALAR"
    },
    {
      "bufferView": 2,
      "byteOffset": 1323552,
      "componentType": 5126,
      "count": 6,
      "max": [
        7.12778902053833,
        -10.610380172729492,
        -4.596747875213623
      ],
      "min": [
        -6.833168029785156,
        -18.202787399291992,
        -7.1419172286987305
      ],
      "type": "VEC3"
    },
    {
      "bufferView": 2,
      "byteOffset": 1323624,
      "componentType": 5126,
      "count": 6,
      "max": [
        0.0042000096291303635,
        0.31880664825439453,
        -0.9478197693824768
      ],
      "min": [
        -0.00020000417134724557,
        0.31130072474479675,
        -0.9503021836280823
      ],
      "type": "VEC3"
    },
    {
      "bufferView": 1,
      "byteOffset": 2205920,
      "componentType": 5126,
      "count": 6,
      "max": [
        0.996929943561554,
        0.7737017273902893
      ],
      "min": [
        -0.0029188543558120728,
        0.20149528980255127
      ],
      "type": "VEC2"
    },
    {
      "bufferView": 0,
      "byteOffset": 581880,
      "componentType": 5125,
      "count": 6,
      "type": "SCALAR"
    }
  ],
  "asset": {
    "extras": {
      "author": "TwoPixels Studio (https://sketchfab.com/twopixels.studio)",
      "license": "CC-BY-4.0 (http://creativecommons.org/licenses/by/4.0/)",
      "source": "https://sketchfab.com/3d-models/pioneer-dj-console-0ba527fa6b164c34aa050dcecbaa2ffb",
      "title": "Pioneer DJ console"
    },
    "generator": "Sketchfab-16.68.0",
    "version": "2.0"
  },
  "bufferViews": [
    {
      "buffer": 0,
      "byteLength": 581904,
      "name": "floatBufferViews",
      "target": 34963
    },
    {
      "buffer": 0,
      "byteLength": 2205968,
      "byteOffset": 581904,
      "byteStride": 8,
      "name": "floatBufferViews",
      "target": 34962
    },
    {
      "buffer": 0,
      "byteLength": 1323696,
      "byteOffset": 2787872,
      "byteStride": 12,
      "name": "floatBufferViews",
      "target": 34962
    },
    {
      "buffer": 0,
      "byteLength": 882368,
      "byteOffset": 4111568,
      "byteStride": 16,
      "name": "floatBufferViews",
      "target": 34962
    }
  ],
  "buffers": [
    {
      "byteLength": 4993936,
      "uri": "scene.bin"
    }
  ],
  "extensionsUsed": [
    "KHR_materials_emissive_strength",
    "KHR_materials_specular"
  ],
  "images": [
    {
      "uri": "textures/console_material_baseColor.png"
    },
    {
      "uri": "textures/console_material_metallicRoughness.png"
    },
    {
      "uri": "textures/console_material_emissive.png"
    },
    {
      "uri": "textures/console_material_normal.png"
    }
  ],
  "materials": [
    {
      "doubleSided": true,
      "emissiveFactor": [
        1.0,
        1.0,
        1.0
      ],
      "emissiveTexture": {
        "index": 2
      },
      "extensions": {
        "KHR_materials_emissive_strength": {
          "emissiveStrength": 7.154639295435602
        },
        "KHR_materials_specular": {
          "specularColorFactor": [
            1.0,
            1.0,
            1.0
          ],
          "specularFactor": 0.0
        }
      },
      "name": "console_material",
      "normalTexture": {
        "index": 3
      },
      "pbrMetallicRoughness": {
        "baseColorTexture": {
          "index": 0
        },
        "metallicRoughnessTexture": {
          "index": 1
        }
      }
    },
    {
      "doubleSided": true,
      "name": "console_screen_material",
      "pbrMetallicRoughness": {
        "baseColorFactor": [
          0.0,
          0.0,
          0.0,
          1.0
        ],
        "metallicFactor": 0.0,
        "roughnessFactor": 0.231818
      }
    }
  ],
  "meshes": [
    {
      "name": "Object_0",
      "primitives": [
        {
          "attributes": {
            "NORMAL": 1,
            "POSITION": 0,
            "TANGENT": 2,
            "TEXCOORD_0": 3,
            "TEXCOORD_1": 4,
            "TEXCOORD_2": 5,
            "TEXCOORD_3": 6,
            "TEXCOORD_4": 7
          },
          "indices": 8,
          "material": 0,
          "mode": 4
        }
      ]
    },
    {
      "name": "Object_1",
      "primitives": [
        {
          "attributes": {
            "NORMAL": 10,
            "POSITION": 9,
            "TEXCOORD_0": 11
          },
          "indices": 12,
          "material": 1,
          "mode": 4
        }
      ]
    }
  ],
  "nodes": [
    {
      "children": [
        1
      ],
      "matrix": [
        1.0,
        0.0,
        0.0,
        0.0,
        0.0,
        2.220446049250313e-16,
        -1.0,
        0.0,
        0.0,
        1.0,
        2.220446049250313e-16,
        0.0,
        0.0,
        0.0,
        0.0,
        1.0
      ],
      "name": "Sketchfab_model"
    },
    {
      "children": [
        2
      ],
      "name": "root"
    },
    {
      "children": [
        3,
        5
      ],
      "matrix": [
        1.0,
        0.0,
        0.0,
        0.0,
        0.0,
        2.220446049250313e-16,
        1.0,
        0.0,
        0.0,
        -1.0,
        2.220446049250313e-16,
        0.0,
        0.0,
        0.0,
        0.0,
        1.0
      ],
      "name": "GLTF_SceneRootNode"
    },
    {
      "children": [
        4
      ],
      "matrix": [
        1.0,
        0.0,
        0.0,
        0.0,
        0.0,
        0.0,
        1.0,
        0.0,
        0.0,
        -1.0,
        0.0,
        0.0,
        0.0,
        0.0,
        0.0,
        1.0
      ],
      "name": "console_final_0"
    },
    {
      "mesh": 0,
      "name": "Object_4"
    },
    {
      "children": [
        6
      ],
      "matrix": [
        1.0,
        0.0,
        0.0,
        0.0,
        0.0,
        0.0,
        1.0,
        0.0,
        0.0,
        -1.0,
        0.0,
        0.0,
        0.0,
        0.0,
        0.0,
        1.0
      ],
      "name": "console_screen_1"
    },
    {
      "mesh": 1,
      "name": "Object_6"
    }
  ],
  "samplers": [
    {
      "magFilter": 9729,
      "minFilter": 9987,
      "wrapS": 10497,
      "wrapT": 10497
    }
  ],
  "scene": 0,
  "scenes": [
    {
      "name": "Sketchfab_Scene",
      "nodes": [
        0
      ]
    }
  ],
  "textures": [
    {
      "sampler": 0,
      "source": 0
    },
    {
      "sampler": 0,
      "source": 1
    },
    {
      "sampler": 0,
      "source": 2
    },
    {
      "sampler": 0,
      "source": 3
    }
  ]
}
