{
  "accessors": [
    {
      "bufferView": 2,
      "componentType": 5126,
      "count": 65533,
      "max": [
        0.44278600811958313,
        -1.4382200241088867,
        0.43303200602531433
      ],
      "min": [
        -0.40276598930358887,
        -1.8744100332260132,
        -0.42594099044799805
      ],
      "type": "VEC3"
    },
    {
      "bufferView": 2,
      "byteOffset": 786396,
      "componentType": 5126,
      "count": 65533,
      "max": [
        0.9999525547027588,
        0.9999663829803467,
        0.9996936917304993
      ],
      "min": [
        -0.9999619722366333,
        -0.999931812286377,
        -0.9999761581420898
      ],
      "type": "VEC3"
    },
    {
      "bufferView": 1,
      "componentType": 5126,
      "count": 65533,
      "max": [
        0.3733530044555664,
        0.9993820190429688
      ],
      "min": [
        0.0006270000012591481,
        0.000737000023946166
      ],
      "type": "VEC2"
    },
    {
      "bufferView": 0,
      "componentType": 5125,
      "count": 65541,
      "type": "SCALAR"
    },
    {
      "bufferView": 2,
      "byteOffset": 1572792,
      "componentType": 5126,
      "count": 65532,
      "max": [
        0.43425899744033813,
        -1.4356600046157837,
        0.42135000228881836
      ],
      "min": [
        -0.40276598930358887,
        -1.876330018043518,
        -0.4118430018424988
      ],
      "type": "VEC3"
    },
    {
      "bufferView": 2,
      "byteOffset": 2359176,
      "componentType": 5126,
      "count": 65532,
      "max": [
        0.9998465180397034,
        0.9999823570251465,
        0.975409984588623
      ],
      "min": [
        -0.9942578077316284,
        -0.9999938011169434,
        -0.9937729835510254
      ],
      "type": "VEC3"
    },
    {
      "bufferView": 1,
      "byteOffset": 524264,
      "componentType": 5126,
      "count": 65532,
      "max": [
        0.24166400730609894,
        0.999334990978241
      ],
      "min": [
        0.0006419999990612268,
        0.08443800359964371
      ],
      "type": "VEC2"
    },
    {
      "bufferView": 0,
      "byteOffset": 262164,
      "componentType": 5125,
      "count": 65544,
      "type": "SCALAR"
    },
    {
      "bufferView": 2,
      "byteOffset": 3145560,
      "componentType": 5126,
      "count": 8781,
      "max": [
        0.41865599155426025,
        -1.4602099657058716,
        0.39886099100112915
      ],
      "min": [
        -0.30824801325798035,
        -1.8376100063323975,
        -0.42402899265289307
      ],
      "type": "VEC3"
    },
    {
      "bufferView": 2,
      "byteOffset": 3250932,
      "componentType": 5126,
      "count": 8781,
      "max": [
        0.9888411164283752,
        0.9994388818740845,
        0.8152377605438232
      ],
      "min": [
        -0.8293818831443787,
        -0.997877299785614,
        -0.9998962879180908
      ],
      "type": "VEC3"
    },
    {
      "bufferView": 1,
      "byteOffset": 1048520,
      "componentType": 5126,
      "count": 8781,
      "max": [
        0.28870299458503723,
        0.8849040269851685
      ],
      "min": [
        0.1499910056591034,
        0.0480320006608963
      ],
      "type": "VEC2"
    },
    {
      "bufferView": 0,
      "byteOffset": 524340,
      "componentType": 5125,
      "count": 8781,
      "type": "SCALAR"
    }
  ],
  "asset": {
    "extras": {
      "author": "Max Funkner (https://sketchfab.com/MaxFunkner)",
      "license": "CC-BY-NC-4.0 (http://creativecommons.org/licenses/by-nc/4.0/)",
      "source": "https://sketchfab.com/3d-models/loaf-of-bread-scan-af71d7fe4b87409f8d9b81452fcb9847",
      "title": "Loaf of Bread Scan"
    },
    "generator": "Sketchfab-15.3.0",
    "version": "2.0"
  },
  "bufferViews": [
    {
      "buffer": 0,
      "byteLength": 559464,
      "name": "floatBufferViews",
      "target": 34963
    },
    {
      "buffer": 0,
      "byteLength": 1118768,
      "byteOffset": 559464,
      "byteStride": 8,
      "name": "floatBufferViews",
      "target": 34962
    },
    {
      "buffer": 0,
      "byteLength": 3356304,
      "byteOffset": 1678232,
      "byteStride": 12,
      "name": "floatBufferViews",
      "target": 34962
    }
  ],
  "buffers": [
    {
      "byteLength": 5034536,
      "uri": "scene.bin"
    }
  ],
  "images": [
    {
      "uri": "textures/TextureAtlas_1001.005_baseColor.png"
    }
  ],
  "materials": [
    {
      "doubleSided": true,
      "name": "TextureAtlas_1001.005",
      "pbrMetallicRoughness": {
        "baseColorTexture": {
          "index": 0
        },
        "metallicFactor": 0.0
      }
    }
  ],
  "meshes": [
    {
      "name": "Object_0",
      "primitives": [
        {
          "attributes": {
            "NORMAL": 1,
            "POSITION": 0,
            "TEXCOORD_0": 2
          },
          "indices": 3,
          "material": 0,
          "mode": 4
        }
      ]
    },
    {
      "name": "Object_1",
      "primitives": [
        {
          "attributes": {
            "NORMAL": 5,
            "POSITION": 4,
            "TEXCOORD_0": 6
          },
          "indices": 7,
          "material": 0,
          "mode": 4
        }
      ]
    },
    {
      "name": "Object_2",
      "primitives": [
        {
          "attributes": {
            "NORMAL": 9,
            "POSITION": 8,
            "TEXCOORD_0": 10
          },
          "indices": 11,
          "material": 0,
          "mode": 4
        }
      ]
    }
  ],
  "nodes": [
    {
      "children": [
        1
      ],
      "matrix": [
        1.0,
        0.0,
        0.0,
        0.0,
        0.0,
        2.220446049250313e-16,
        -1.0,
        0.0,
        0.0,
        1.0,
        2.220446049250313e-16,
        0.0,
        0.0,
        0.0,
        0.0,
        1.0
      ],
      "name": "Sketchfab_model"
    },
    {
      "children": [
        2,
        3,
        4
      ],
      "name": "Loaf of Bread Scan by Max Funkner 5.obj.cleaner.materialmerger.gles"
    },
    {
      "mesh": 0,
      "name": "Object_2"
    },
    {
      "mesh": 1,
      "name": "Object_3"
    },
    {
      "mesh": 2,
      "name": "Object_4"
    }
  ],
  "samplers": [
    {
      "magFilter": 9729,
      "minFilter": 9987,
      "wrapS": 10497,
      "wrapT": 10497
    }
  ],
  "scene": 0,
  "scenes": [
    {
      "name": "Sketchfab_Scene",
      "nodes": [
        0
      ]
    }
  ],
  "textures": [
    {
      "sampler": 0,
      "source": 0
    }
  ]
}
